# xmcd CD database file
# Copyright (C) 1993-1998 Ti Kan
#
# Track frame offsets:
#	183
#	10645
#	25020
#	39058
#	51845
#	61945
#	76408
#	91695
#	102245
#	116933
#	129345
#	140333
#	151470
#	163595
#	175595
#	187570
#	202945
#	215633
#	224333
#	234395
#	245320
#	254195
#	265583
#
# Disc length: 3709 seconds
#
# Revision: 2
# Processed by: cddbd v1.4PL0 Copyright (c) Steve Scherf et al.
# Submitted via: Gronk 1.4
#
DISCID=260e7b17
DTITLE=Chuck Berry - Sweet Little Sixteen
DYEAR=1900
DGENRE=blues
TTITLE0=Deep Feeling
TTITLE1=Low Feeling
TTITLE2=La Juanda
TTITLE3=How You've Changed
TTITLE4=Thirteen Questions Method
TTITLE5=Sweet Little Sixteen
TTITLE6=Rockin' At The Philharmonic
TTITLE7=Guitar Boogie
TTITLE8=Surfin' USA
TTITLE9=Night Beat
TTITLE10=Ingo
TTITLE11=It Don't Take But A Few Minutes
TTITLE12=Johnny B. Goode
TTITLE13=Around and Around
TTITLE14=Surfin' Steel
TTITLE15=Blues For Hawaiians
TTITLE16=Carol
TTITLE17=Hey Pedro, Lazy Pedro
TTITLE18=Beautiful Delilah
TTITLE19=House Of Blue Lights
TTITLE20=Time Was
TTITLE21=Oh Yeah
TTITLE22=Vacation Time
EXTD=
EXTT0=
EXTT1=
EXTT2=
EXTT3=
EXTT4=
EXTT5=
EXTT6=
EXTT7=
EXTT8=
EXTT9=
EXTT10=
EXTT11=
EXTT12=
EXTT13=
EXTT14=
EXTT15=
EXTT16=
EXTT17=
EXTT18=
EXTT19=
EXTT20=
EXTT21=
EXTT22=
PLAYORDER=
